<svg width="1233" height="1233" viewBox="0 0 1233 1233" fill="none" xmlns="http://www.w3.org/2000/svg">
<path d="M49.3145 652.778V580.042C49.3145 580.042 291.741 504.491 398.102 398.138C504.478 291.771 579.428 49.3125 579.428 49.3125H654.013C654.013 49.3125 730.967 291.667 838.172 398.138C944.059 503.301 1183.51 580.042 1183.51 580.042V654.011C1183.51 654.011 944.175 732.197 838.172 838.207C732.183 944.204 652.78 1183.51 652.78 1183.51H580.66C580.66 1183.51 503.262 944.091 398.102 838.207C291.635 731.007 49.3145 652.778 49.3145 652.778Z" fill="white"/>
<path d="M443.816 184.923H184.923V443.816L0 517.785V259.509L258.892 0H517.785L443.816 184.923Z" fill="white"/>
<path d="M443.816 1047.9H184.923V789.006L0 715.036V973.312L258.892 1232.82H517.785L443.816 1047.9Z" fill="white"/>
<path d="M789.008 184.923H1047.9V443.816L1232.82 517.785V259.509L973.931 0H715.038L789.008 184.923Z" fill="white"/>
<path d="M789.008 1047.9H1047.9V789.006L1232.82 715.036V973.312L973.931 1232.82H715.038L789.008 1047.9Z" fill="white"/>
</svg>
