<svg width="1208" height="1208" viewBox="0 0 1208 1208" fill="none" xmlns="http://www.w3.org/2000/svg">
<path d="M48.2871 639.187V567.965C48.2871 567.965 285.666 493.988 389.813 389.849C493.974 285.696 567.363 48.2861 567.363 48.2861H640.396C640.396 48.2861 715.747 285.595 820.72 389.849C924.403 492.822 1158.87 567.965 1158.87 567.965V640.395C1158.87 640.395 924.516 716.952 820.72 820.756C716.938 924.545 639.188 1158.87 639.188 1158.87H568.57C568.57 1158.87 492.783 924.435 389.813 820.756C285.563 715.787 48.2871 639.187 48.2871 639.187Z" fill="black"/>
<path d="M434.575 181.073H181.073V434.575L0 507.004V254.106L253.502 0H507.004L434.575 181.073Z" fill="black"/>
<path d="M434.575 1026.08H181.073V772.579L0 700.15V953.049L253.502 1207.15H507.004L434.575 1026.08Z" fill="black"/>
<path d="M772.579 181.073H1026.08V434.575L1207.15 507.004V254.106L953.652 0H700.15L772.579 181.073Z" fill="black"/>
<path d="M772.579 1026.08H1026.08V772.579L1207.15 700.15V953.049L953.652 1207.15H700.15L772.579 1026.08Z" fill="black"/>
</svg>
